<?xml version="1.0" standalone="no"?>
<!DOCTYPE svg PUBLIC "-//W3C//DTD SVG 20010904//EN"
 "http://www.w3.org/TR/2001/REC-SVG-20010904/DTD/svg10.dtd">
<svg version="1.0" xmlns="http://www.w3.org/2000/svg"
 width="912.000000pt" height="912.000000pt" viewBox="0 0 912.000000 912.000000"
 preserveAspectRatio="xMidYMid meet">
<metadata>
Created by potrace 1.14, written by Peter Selinger 2001-2017
</metadata>
<g transform="translate(0.000000,912.000000) scale(0.100000,-0.100000)"
fill="#000000" stroke="none">
<path d="M2670 7902 l-1885 -1088 -3 -2216 c-2 -1766 1 -2219 10 -2228 7 -6
531 -310 1163 -674 633 -364 1476 -850 1874 -1080 399 -230 732 -415 740 -413
9 3 858 491 1886 1084 l1870 1080 3 2224 2 2225 -1884 1087 c-1036 598 -1885
1087 -1887 1087 -2 -1 -852 -490 -1889 -1088z m2030 92 l130 -76 0 -848 0
-848 608 -348 c334 -191 619 -356 635 -366 l27 -19 0 -245 0 -244 395 0 395 0
-2 477 -3 478 -226 130 c-124 71 -407 234 -627 360 l-402 230 0 388 c0 213 3
387 8 387 4 -1 430 -245 947 -544 l940 -544 3 -1769 2 -1769 -942 -544 c-518
-300 -945 -546 -950 -548 -4 -2 -8 167 -8 375 l0 378 628 360 627 360 3 493 2
492 -395 0 -395 0 0 -258 c0 -234 -2 -258 -17 -268 -10 -6 -288 -165 -618
-354 -330 -189 -608 -350 -617 -358 -17 -14 -18 -67 -18 -847 l0 -832 -131
-77 c-72 -42 -134 -76 -139 -76 -4 0 -67 35 -139 77 l-131 77 0 832 0 832
-597 343 c-329 188 -615 353 -635 366 l-38 23 0 904 c0 848 1 904 18 918 14
12 1156 669 1230 707 l22 12 0 853 0 853 128 76 c70 42 133 76 140 76 7 1 71
-33 142 -75z m-1210 -931 l0 -388 -630 -360 -629 -360 -1 -1370 0 -1370 630
-360 629 -360 1 -383 0 -384 -59 34 c-32 18 -460 265 -950 548 l-891 515 0
1766 0 1766 728 421 c400 231 824 477 942 546 118 69 218 125 223 125 4 1 7
-173 7 -386z"/>
</g>
</svg>
