<?xml version="1.0" standalone="no"?>
<!DOCTYPE svg PUBLIC "-//W3C//DTD SVG 20010904//EN"
 "http://www.w3.org/TR/2001/REC-SVG-20010904/DTD/svg10.dtd">
<svg version="1.0" xmlns="http://www.w3.org/2000/svg"
 width="912.000000pt" height="912.000000pt" viewBox="0 0 912.000000 912.000000"
 preserveAspectRatio="xMidYMid meet">
<metadata>
Created by potrace 1.14, written by Peter Selinger 2001-2017
</metadata>
<g transform="translate(0.000000,912.000000) scale(0.100000,-0.100000)"
fill="#000000" stroke="none">
<path d="M4334 8861 c-122 -70 -228 -131 -235 -135 -8 -3 -27 -14 -44 -24 -53
-33 -269 -158 -285 -165 -8 -4 -28 -16 -45 -26 -16 -11 -46 -28 -65 -39 -75
-41 -277 -158 -300 -173 -8 -5 -27 -15 -42 -22 -16 -6 -28 -15 -28 -19 0 -4
-6 -8 -14 -8 -8 0 -21 -6 -28 -12 -8 -7 -27 -20 -43 -29 -17 -9 -81 -46 -144
-82 -62 -37 -115 -67 -117 -67 -2 0 -25 -13 -51 -29 -92 -56 -138 -82 -155
-88 -10 -3 -18 -9 -18 -14 0 -5 -4 -9 -9 -9 -5 0 -165 -90 -356 -200 -190
-110 -350 -200 -355 -200 -6 0 -10 -4 -10 -10 0 -5 -4 -10 -9 -10 -5 0 -70
-36 -146 -80 -76 -44 -140 -80 -143 -80 -3 0 -13 -6 -21 -14 -9 -7 -41 -27
-71 -43 -65 -36 -94 -52 -220 -125 -52 -30 -140 -81 -195 -113 -55 -32 -157
-91 -227 -131 -69 -41 -129 -74 -133 -74 -3 0 -14 -8 -23 -17 -16 -15 -17
-172 -17 -2234 l0 -2217 50 -30 c27 -16 73 -42 100 -57 28 -15 62 -36 76 -46
15 -10 37 -23 50 -29 13 -6 38 -19 54 -30 17 -10 41 -25 55 -33 40 -22 89 -50
292 -168 106 -61 213 -123 238 -137 25 -13 113 -64 196 -113 83 -48 167 -97
188 -108 68 -39 101 -58 154 -90 29 -17 55 -31 58 -31 2 0 21 -11 42 -24 64
-41 231 -137 239 -137 5 0 15 -6 23 -13 8 -7 61 -39 118 -70 56 -32 105 -62
108 -67 3 -5 10 -7 15 -4 5 4 9 1 9 -4 0 -6 7 -11 15 -11 8 0 15 -5 15 -12 0
-6 3 -9 6 -5 4 3 29 -9 58 -27 28 -18 58 -35 66 -39 8 -4 33 -18 55 -31 22
-14 63 -37 90 -51 28 -15 57 -33 66 -41 8 -8 18 -14 22 -14 3 0 67 -36 143
-80 75 -44 138 -80 141 -80 3 0 17 -8 31 -18 15 -11 59 -36 97 -57 39 -21 72
-41 75 -44 3 -3 19 -13 35 -22 59 -30 120 -64 125 -69 5 -5 209 -123 305 -175
28 -16 74 -43 103 -62 29 -18 54 -33 56 -33 1 0 49 -27 106 -60 64 -36 108
-56 114 -51 6 5 28 18 49 30 59 34 99 56 153 88 47 29 102 60 186 107 52 29
486 280 528 305 19 11 42 24 50 28 8 3 17 9 20 12 3 3 21 14 40 25 47 25 91
50 175 99 129 76 150 88 168 94 9 3 17 10 17 15 0 5 4 7 9 4 5 -4 11 -2 13 2
1 5 37 27 78 51 41 23 89 50 105 60 17 10 50 29 75 43 82 46 225 128 240 137
8 6 64 38 125 73 60 35 119 68 130 75 11 7 27 15 35 19 8 4 17 10 20 13 5 6
53 33 125 70 16 9 32 18 35 21 3 3 15 11 28 18 13 7 109 62 214 122 104 61
194 110 199 110 5 0 9 4 9 9 0 5 10 13 23 17 12 3 29 12 37 19 8 7 38 25 65
40 28 14 66 35 85 47 19 11 114 65 210 121 96 55 192 111 213 124 20 13 37 20
37 16 0 -5 4 -3 8 3 4 6 39 28 77 49 39 21 72 41 75 44 3 3 19 13 35 21 17 8
36 21 43 28 7 6 16 12 20 12 4 0 7 1000 7 2222 l0 2221 -30 18 c-16 10 -50 30
-75 44 -52 29 -98 56 -227 132 -51 30 -94 53 -97 51 -2 -2 -12 4 -22 13 -11 9
-65 42 -122 74 -56 31 -105 61 -108 66 -3 5 -10 7 -15 4 -5 -4 -9 -2 -9 3 0 5
-8 12 -17 15 -10 3 -39 19 -65 34 -26 15 -109 64 -185 107 -76 44 -141 84
-145 90 -4 6 -8 8 -8 4 0 -3 -88 45 -196 108 -107 63 -199 114 -205 114 -5 0
-9 5 -9 10 0 6 -5 10 -11 10 -12 0 -145 76 -170 97 -9 7 -19 10 -22 6 -4 -3
-7 -1 -7 5 0 6 -6 12 -12 14 -7 2 -60 30 -117 63 -56 33 -126 73 -155 88 -28
16 -62 36 -76 45 -14 9 -34 22 -45 28 -45 24 -115 64 -195 111 -47 28 -105 62
-130 75 -25 14 -67 38 -95 54 -27 15 -51 32 -53 36 -2 4 -8 8 -14 8 -5 0 -51
24 -101 54 -51 29 -109 63 -129 75 -99 56 -177 100 -267 153 -25 16 -55 33
-66 38 -11 6 -29 16 -40 23 -11 7 -74 43 -140 81 -66 38 -132 77 -146 87 -14
10 -28 16 -31 13 -3 -2 -11 2 -18 11 -7 8 -18 15 -25 15 -8 0 -15 3 -17 8 -3
7 -66 43 -115 66 -13 6 -23 14 -23 19 0 18 -38 -1 -246 -122z m262 -800 c9 -9
45 -30 114 -67 19 -11 37 -22 40 -25 3 -3 21 -14 40 -25 19 -10 39 -26 44 -34
10 -15 12 -207 3 -217 -3 -3 -1 -16 4 -30 6 -17 6 -30 -1 -38 -5 -6 -7 -14 -4
-17 7 -8 8 -227 1 -234 -3 -3 -1 -17 4 -31 6 -17 6 -30 -1 -38 -5 -6 -7 -14
-4 -17 7 -8 8 -227 1 -234 -3 -3 -1 -17 4 -31 6 -17 6 -30 -1 -38 -5 -6 -7
-14 -4 -17 7 -8 8 -227 1 -234 -3 -3 -1 -17 4 -31 6 -17 6 -30 -1 -38 -5 -6
-7 -14 -4 -17 7 -8 8 -227 1 -234 -3 -3 -1 -17 4 -31 6 -17 6 -30 -1 -38 -5
-6 -7 -14 -4 -17 3 -3 5 -29 6 -56 0 -50 15 -72 53 -82 6 -1 22 -11 37 -21 14
-10 31 -19 37 -19 6 0 11 -4 11 -10 0 -5 4 -10 10 -10 5 0 33 -14 62 -31 59
-35 104 -61 163 -92 22 -12 46 -28 53 -34 7 -7 24 -16 38 -19 13 -3 24 -10 24
-14 0 -4 8 -10 18 -13 9 -3 40 -20 67 -36 28 -17 57 -34 65 -38 8 -4 38 -20
65 -36 28 -17 70 -41 95 -55 25 -14 57 -32 72 -41 37 -22 145 -84 198 -114 25
-14 78 -45 119 -69 l74 -43 1 -249 1 -250 390 1 c215 1 393 2 396 2 3 1 6 214
6 474 l0 473 -181 104 c-99 57 -188 109 -196 116 -8 7 -18 13 -23 13 -11 1
-98 51 -119 69 -10 8 -18 11 -18 6 0 -5 -4 -4 -8 1 -7 10 -29 23 -102 62 -19
10 -37 20 -40 23 -5 5 -15 11 -99 58 -76 42 -145 82 -161 92 -8 5 -28 17 -45
26 -16 9 -84 47 -150 86 l-120 69 0 385 c0 211 3 384 7 384 7 0 93 -47 163
-89 17 -10 48 -28 70 -41 22 -12 112 -64 200 -115 88 -51 183 -105 210 -120
28 -16 74 -43 103 -62 29 -18 59 -33 66 -33 8 0 16 -4 18 -8 2 -4 41 -30 88
-56 47 -27 113 -66 147 -88 34 -21 65 -38 67 -38 3 0 38 -20 78 -43 59 -36
297 -173 443 -257 17 -10 59 -35 95 -55 36 -21 86 -50 111 -64 38 -21 45 -30
39 -46 -4 -11 -6 -23 -4 -27 3 -5 5 -374 3 -468 0 -8 0 -116 0 -240 0 -124 0
-232 0 -240 0 -8 0 -116 0 -240 0 -124 0 -232 0 -240 0 -8 0 -116 0 -240 0
-124 0 -234 0 -245 0 -11 0 -366 0 -789 1 -422 -2 -772 -5 -778 -3 -5 -16 -13
-27 -18 -12 -6 -40 -21 -62 -34 -45 -28 -70 -43 -135 -78 -25 -14 -79 -45
-120 -70 -41 -25 -95 -56 -120 -70 -56 -31 -289 -166 -902 -521 -263 -153
-480 -277 -484 -277 -3 0 -13 -7 -21 -16 -9 -9 -18 -11 -22 -6 -3 6 -6 176 -5
378 l0 369 60 34 c32 18 79 45 104 59 25 14 88 50 140 80 52 30 185 106 295
169 110 62 207 118 215 123 8 5 38 22 65 38 28 16 67 38 88 50 20 12 53 31 72
42 19 11 52 30 73 42 20 11 54 30 75 42 81 44 75 -5 73 543 l-1 488 -393 1
c-390 1 -393 0 -397 -20 -2 -12 -4 -120 -4 -241 1 -121 0 -230 0 -242 -1 -16
-13 -29 -43 -44 -24 -12 -45 -24 -48 -28 -3 -3 -18 -13 -35 -21 -16 -8 -58
-32 -92 -52 -35 -21 -67 -38 -73 -38 -5 0 -10 -3 -10 -7 0 -5 -10 -13 -23 -19
-39 -18 -162 -87 -167 -93 -3 -4 -27 -17 -55 -31 -27 -14 -56 -31 -63 -37 -7
-7 -20 -13 -28 -13 -8 0 -14 -4 -14 -10 0 -5 -4 -10 -9 -10 -5 0 -48 -23 -96
-50 -48 -28 -91 -50 -96 -50 -5 0 -9 -4 -9 -9 0 -5 -11 -12 -25 -15 -14 -4
-25 -11 -25 -16 0 -6 -4 -10 -9 -10 -5 0 -83 -42 -173 -94 -146 -83 -163 -96
-165 -121 -1 -15 -4 -34 -7 -41 -2 -6 -2 -15 1 -18 9 -9 9 -135 1 -129 -5 2
-3 -8 2 -23 7 -18 7 -30 0 -39 -5 -6 -7 -14 -4 -17 7 -8 8 -147 1 -154 -3 -3
-1 -17 4 -31 5 -14 6 -31 2 -37 -7 -10 -9 -32 -3 -46 6 -16 5 -62 -2 -66 -5
-3 -5 -10 -1 -17 10 -16 10 -58 1 -63 -5 -3 -5 -10 -1 -17 10 -16 10 -58 1
-63 -5 -3 -5 -10 -1 -17 10 -16 11 -59 2 -83 -4 -12 -5 -24 -2 -28 9 -9 11
-76 1 -82 -4 -3 -6 -10 -3 -15 8 -12 10 -148 2 -155 -3 -3 -1 -17 4 -31 6 -17
6 -30 -1 -38 -5 -6 -7 -14 -4 -17 7 -8 8 -147 1 -154 -3 -3 -1 -17 4 -31 5
-14 6 -31 2 -37 -7 -10 -9 -32 -3 -46 6 -16 5 -62 -2 -66 -5 -3 -5 -10 -1 -17
11 -18 10 -57 -3 -68 -14 -11 -176 -109 -181 -109 -2 0 -21 -12 -43 -26 l-39
-26 -121 71 c-67 39 -125 71 -129 71 -24 0 -27 91 -26 863 l0 818 -48 30 c-26
16 -52 29 -57 29 -6 0 -10 5 -10 10 0 6 -6 10 -13 10 -7 0 -29 11 -49 25 -20
14 -43 25 -51 25 -8 0 -17 7 -21 15 -3 8 -10 15 -15 15 -6 0 -70 34 -143 77
-73 42 -146 83 -163 92 -16 9 -32 19 -33 24 -2 4 -7 7 -12 7 -5 0 -47 22 -95
50 -48 27 -89 50 -93 50 -3 0 -13 6 -21 14 -9 7 -43 28 -76 46 -33 18 -117 66
-187 107 -69 40 -129 73 -133 73 -3 0 -14 8 -23 17 -16 15 -17 89 -18 929 l0
912 145 83 c80 46 155 89 166 95 11 6 64 37 118 68 54 31 102 56 107 56 5 0
10 4 12 8 2 4 50 34 108 67 58 33 114 65 125 72 11 7 29 16 41 22 11 5 50 27
85 49 35 21 69 41 75 43 5 2 71 39 145 82 l134 79 0 854 c0 470 2 854 5 854 3
0 21 10 40 22 19 12 37 22 40 23 3 0 28 14 55 31 107 66 121 74 136 74 8 0 19
-4 25 -9z m-1106 -633 c4 -109 0 -750 -5 -758 -3 -6 -27 -22 -53 -35 -26 -14
-54 -30 -62 -35 -50 -32 -223 -130 -230 -130 -4 0 -13 -7 -20 -15 -7 -9 -15
-13 -18 -11 -3 3 -17 -3 -31 -13 -25 -17 -374 -220 -492 -285 -30 -17 -121
-69 -202 -116 l-147 -84 0 -1371 0 -1371 33 -17 c42 -21 111 -61 117 -67 3 -3
16 -11 30 -18 14 -6 32 -16 40 -21 45 -29 365 -211 390 -223 17 -7 30 -16 30
-20 0 -5 4 -8 9 -8 5 0 91 -47 191 -105 99 -58 185 -105 191 -105 5 0 9 -4 9
-10 0 -5 4 -10 9 -10 7 0 184 -98 209 -116 3 -2 4 -486 3 -708 l-1 -58 -24 16
c-24 15 -54 33 -146 84 -25 14 -62 36 -82 49 -21 12 -42 23 -48 23 -5 0 -10 3
-10 8 0 4 -10 12 -23 18 -45 22 -143 77 -169 95 -14 11 -31 19 -36 19 -6 0
-12 3 -14 8 -3 6 -17 15 -103 61 -16 9 -31 19 -33 24 -2 4 -9 7 -15 7 -7 0
-40 18 -75 40 -34 22 -65 40 -67 40 -3 0 -34 18 -70 40 -36 22 -70 40 -75 40
-6 0 -10 5 -10 10 0 6 -4 10 -10 10 -5 0 -81 41 -167 91 -157 91 -391 226
-448 259 -16 10 -81 47 -144 84 -62 36 -118 66 -122 66 -11 0 -10 -209 -10
1809 l-1 1724 24 18 c12 10 28 19 35 19 6 0 13 3 15 8 3 6 17 15 103 61 16 9
32 19 35 22 3 3 17 12 32 20 15 8 65 36 112 63 47 26 88 49 93 49 8 1 20 10
48 35 8 7 15 11 15 7 0 -3 12 2 28 13 15 10 47 30 72 44 25 14 72 41 105 60
33 19 71 41 85 49 14 8 27 16 30 19 6 6 86 50 117 65 13 5 23 13 23 18 0 4 5
7 11 7 6 0 48 22 93 49 44 26 182 107 306 178 213 124 248 144 338 194 20 12
53 31 72 42 94 58 110 65 110 45z"/>
</g>
</svg>
